<svg xmlns="http://www.w3.org/2000/svg"  viewBox="0 0 17 16" fill="none">
  <path d="M8.43913 2.1694C6.8343 2.1694 5.46504 2.73625 4.33136 3.86993C3.19767 5.00362 2.63083 6.37288 2.63083 7.9777C2.63083 8.98109 2.86243 9.89989 3.32562 10.7341C3.78881 11.5682 4.41116 12.2332 5.19267 12.7292V11.7542C5.19267 11.5915 5.24729 11.4551 5.35654 11.345C5.46578 11.235 5.60109 11.18 5.76245 11.18C5.92397 11.18 6.06075 11.235 6.17279 11.345C6.28498 11.4551 6.34107 11.5915 6.34107 11.7542V14.2683C6.34107 14.4696 6.27305 14.6383 6.13701 14.7743C6.00082 14.9105 5.83217 14.9786 5.63105 14.9786H3.1167C2.954 14.9786 2.81767 14.924 2.70769 14.8147C2.59756 14.7055 2.54249 14.5702 2.54249 14.4088C2.54249 14.2473 2.59756 14.1105 2.70769 13.9985C2.81767 13.8863 2.954 13.8302 3.1167 13.8302H4.73397C3.75782 13.2265 2.97182 12.4131 2.37597 11.39C1.78027 10.3671 1.48242 9.23698 1.48242 7.99979C1.48242 7.04573 1.66624 6.144 2.03388 5.29462C2.40152 4.4451 2.90144 3.7043 3.53366 3.07223C4.16572 2.44002 4.90659 1.94009 5.75627 1.57245C6.60595 1.20481 7.50885 1.021 8.46497 1.021C9.93537 1.021 11.2524 1.42853 12.4162 2.24361C13.58 3.05854 14.4181 4.1058 14.9303 5.38539C14.996 5.53307 14.9963 5.67802 14.9312 5.82024C14.866 5.96247 14.7614 6.06678 14.6176 6.13318C14.4737 6.19973 14.3305 6.19877 14.1878 6.13031C14.0453 6.0617 13.9411 5.95547 13.8753 5.81163C13.4541 4.74596 12.7553 3.87251 11.779 3.19127C10.8027 2.51003 9.68942 2.1694 8.43913 2.1694Z" fill="currentColor"/>
  <path d="M9.15266 14.3423L11.7145 7.60975C11.7591 7.50867 11.8193 7.43207 11.8949 7.37995C11.9705 7.32782 12.0567 7.30176 12.1533 7.30176H12.5177C12.6204 7.30176 12.7098 7.32913 12.7859 7.38389C12.8619 7.43864 12.9223 7.51655 12.9669 7.61763L15.4796 14.3309C15.5412 14.4879 15.5306 14.635 15.4476 14.7725C15.3647 14.9099 15.2339 14.9786 15.0554 14.9786C14.9458 14.9786 14.85 14.9513 14.768 14.8967C14.6861 14.842 14.626 14.764 14.5876 14.6628L13.9639 12.9301H10.6671L10.0329 14.6756C10.002 14.7629 9.94686 14.8352 9.86736 14.8926C9.78786 14.9499 9.69591 14.9786 9.59152 14.9786C9.41468 14.9786 9.28263 14.9106 9.19539 14.7745C9.10814 14.6384 9.0939 14.4943 9.15266 14.3423ZM10.9678 12.0719H13.6609L12.3817 8.49181H12.3095L10.9678 12.0719Z" fill="currentColor"/>
</svg>