<svg xmlns="http://www.w3.org/2000/svg"  viewBox="0 0 17 16" fill="none">
  <path d="M11.1673 8.60016V11.4002C11.1673 13.7335 10.234 14.6668 7.90065 14.6668H5.10065C2.76732 14.6668 1.83398 13.7335 1.83398 11.4002V8.60016C1.83398 6.26683 2.76732 5.3335 5.10065 5.3335H7.90065C10.234 5.3335 11.1673 6.26683 11.1673 8.60016Z" stroke="currentColor" stroke-linecap="round" stroke-linejoin="round"/>
  <path d="M15.1673 4.60016V7.40016C15.1673 9.7335 14.234 10.6668 11.9007 10.6668H11.1673V8.60016C11.1673 6.26683 10.234 5.3335 7.90065 5.3335H5.83398V4.60016C5.83398 2.26683 6.76732 1.3335 9.10065 1.3335H11.9007C14.234 1.3335 15.1673 2.26683 15.1673 4.60016Z" stroke="currentColor" stroke-linecap="round" stroke-linejoin="round"/>
</svg>