<svg xmlns="http://www.w3.org/2000/svg" width="19" height="19" viewBox="0 0 19 19" fill="currentColor">
  <path fill-rule="evenodd" clip-rule="evenodd" d="M9.665 18.4775C14.7266 18.4775 18.83 14.3741 18.83 9.31246C18.83 4.25075 14.7266 0.147461 9.665 0.147461C4.60329 0.147461 0.5 4.25075 0.5 9.31246C0.5 14.3741 4.60329 18.4775 9.665 18.4775ZM6.53589 6.18335C5.999 6.72023 5.999 7.58428 5.999 9.31246C5.999 11.0406 5.999 11.9047 6.53589 12.4416C7.07277 12.9785 7.93682 12.9785 9.665 12.9785C11.3932 12.9785 12.2572 12.9785 12.7941 12.4416C13.331 11.9047 13.331 11.0406 13.331 9.31246C13.331 7.58428 13.331 6.72023 12.7941 6.18335C12.2572 5.64646 11.3932 5.64646 9.665 5.64646C7.93682 5.64646 7.07277 5.64646 6.53589 6.18335Z" fill="currentColor"/>
</svg>