<svg xmlns="http://www.w3.org/2000/svg" width="17" height="16" viewBox="0 0 17 16" fill="none">
  <g opacity="0.85">
    <path d="M13.7756 1.18518C13.6733 0.938319 13.3237 0.93826 13.2213 1.18508L13.0887 1.50482C12.8856 1.99453 12.4964 2.38357 12.0066 2.58646L11.6845 2.71991C11.4375 2.82221 11.4376 3.17207 11.6846 3.27429L12.0037 3.40634C12.4944 3.60942 12.8842 3.99934 13.0871 4.49014L13.2197 4.8108C13.3219 5.05791 13.6719 5.05797 13.7742 4.8109L13.9059 4.49274C14.1088 4.00235 14.4984 3.61274 14.9888 3.40971L15.3109 3.27635C15.5578 3.17411 15.5579 2.82435 15.311 2.72202L14.991 2.58944C14.5012 2.38643 14.112 1.99719 13.909 1.5073L13.7756 1.18518ZM7.53777 1.53065C7.83105 0.823135 8.8333 0.823306 9.12633 1.53092L9.70152 2.91991C10.4283 4.67492 11.8222 6.06949 13.5769 6.79701L14.9669 7.37331C15.6743 7.66662 15.6741 8.66875 14.9666 8.96181L13.5774 9.53723C11.8209 10.2648 10.4256 11.6607 9.69883 13.4175L9.1259 14.8024C8.8329 15.5106 7.82966 15.5104 7.53689 14.8021L6.96187 13.4108C6.23517 11.6526 4.83898 10.2555 3.08115 9.52777L1.69689 8.95468C0.989187 8.66168 0.989017 7.6593 1.69662 7.36606L3.0888 6.78913C4.84324 6.06207 6.23723 4.66819 6.96444 2.91382L7.53777 1.53065ZM8.49301 3.46585C8.43083 3.33103 8.2326 3.33098 8.17035 3.46577C7.22861 5.50464 5.67868 7.05429 3.63202 7.99873C3.4972 8.06095 3.49723 8.25919 3.63206 8.32139C5.68189 9.267 7.22982 10.8225 8.17032 12.8649C8.23247 12.9998 8.43091 12.9999 8.49313 12.8649C9.43402 10.8247 10.9843 9.27314 13.032 8.32853C13.1668 8.26635 13.1668 8.06817 13.032 8.00594C10.9909 7.06352 9.43832 5.51531 8.49301 3.46585Z" fill="currentColor"/>
  </g>
</svg>