<svg xmlns="http://www.w3.org/2000/svg"  viewBox="0 0 24 24" fill="none">
  <path d="M23 12C23 5.92487 18.0751 1 12 1C5.92487 1 1 5.92487 1 12C1 18.0751 5.92487 23 12 23C18.0751 23 23 18.0751 23 12ZM12.7062 6.04863C13.7604 7.10142 14.8135 8.15524 15.8667 9.20906C16.2283 9.57089 16.5899 9.93271 16.9515 10.2945C17.342 10.6851 17.3435 11.3184 16.9539 11.7098C16.5671 12.0985 15.9321 12.1036 15.5443 11.7159L13.0001 9.17154V17C13.0001 17.5523 12.5523 18 12.0001 18C11.4478 18 11.0001 17.5523 11.0001 17V9.17154L8.46345 11.7082C8.07346 12.0982 7.43991 12.0975 7.04992 11.7075C6.65994 11.3175 6.65925 10.684 7.04916 10.2939C7.41106 9.93189 7.77293 9.5698 8.13479 9.20771C9.1875 8.15435 10.2402 7.10099 11.2939 6.04864C11.6841 5.659 12.316 5.659 12.7062 6.04863Z" fill="currentColor"/>
</svg>