<svg xmlns="http://www.w3.org/2000/svg"  viewBox="0 0 25 21" fill="none">
<g clip-path="url(#clip0_3551_49598)">
<path d="M1.63867 10.8405C1.63867 7.81885 1.63867 6.30807 2.57734 5.36934C3.51607 4.43066 5.02686 4.43066 8.04853 4.43066C11.0702 4.43066 12.581 4.43066 13.5197 5.36934C14.4584 6.30807 14.4584 7.81885 14.4584 10.8405C14.4584 13.8621 14.4584 15.373 13.5197 16.3117C12.5811 17.2504 11.0702 17.2504 8.04853 17.2504C5.02686 17.2504 3.51607 17.2504 2.57734 16.3117C1.63867 15.373 1.63867 13.8621 1.63867 10.8405Z" stroke="currentColor" stroke-width="1.25"/>
<path d="M9.33203 8.27687C9.32992 9.26371 10.3969 9.88281 11.2526 9.39121C11.6515 9.16205 11.897 8.73683 11.896 8.27687C11.8981 7.28998 10.8311 6.67094 9.97539 7.16254C9.57655 7.39164 9.33104 7.81691 9.33203 8.27687Z" fill="currentColor" stroke="currentColor" stroke-width="0.2"/>
<path d="M1.63867 11.1606L2.76139 10.1782C3.34551 9.66717 4.22588 9.69646 4.77467 10.2453L7.52436 12.9949C7.96481 13.4354 8.65826 13.4955 9.16797 13.1373L9.3591 13.003C10.0925 12.4875 11.0849 12.5472 11.7512 13.1469L13.8174 15.0065" stroke="currentColor" stroke-width="1.25" stroke-linecap="round"/>
</g>
<path d="M23.4512 5.84082H16.5488" stroke="currentColor" stroke-width="1.25" stroke-linecap="round"/>
<path d="M21.3805 10.8408H16.5488" stroke="currentColor" stroke-width="1.25" stroke-linecap="round"/>
<path d="M20 15.8408H16.5488" stroke="currentColor" stroke-width="1.25" stroke-linecap="round"/>
<defs>
<clipPath id="clip0_3551_49598">
<rect width="15" height="15" fill="white" transform="translate(0.548828 3.34082)"/>
</clipPath>
</defs>
</svg>