<svg xmlns="http://www.w3.org/2000/svg"  viewBox="0 0 14 14" fill="none">
  <g clip-path="url(#clip0_3551_48456)">
    <path d="M0.994141 6.69657C0.994141 4.07778 0.994141 2.76844 1.80766 1.95487C2.62122 1.14136 3.93057 1.14136 6.54935 1.14136C9.16809 1.14136 10.4775 1.14136 11.291 1.95487C12.1046 2.76844 12.1046 4.07778 12.1046 6.69657C12.1046 9.31531 12.1046 10.6247 11.291 11.4382C10.4775 12.2518 9.16809 12.2518 6.54935 12.2518C3.93057 12.2518 2.62122 12.2518 1.80766 11.4382C0.994141 10.6248 0.994141 9.31531 0.994141 6.69657Z" stroke="currentColor"/>
    <path d="M7.66211 4.47495C7.66028 5.33021 8.58501 5.86676 9.32662 5.44071C9.67229 5.2421 9.88506 4.87358 9.8842 4.47495C9.88603 3.61964 8.9613 3.08314 8.21969 3.50919C7.87402 3.70775 7.66125 4.07632 7.66211 4.47495Z" fill="currentColor" stroke="currentColor" stroke-width="0.2"/>
    <path d="M0.994141 6.9744L1.96716 6.123C2.4734 5.68008 3.23639 5.70547 3.712 6.18109L6.09507 8.56415C6.47679 8.94593 7.07779 8.99798 7.51953 8.6875L7.68518 8.57111C8.32081 8.12439 9.18084 8.17614 9.75833 8.69588L11.5491 10.3075" stroke="currentColor" stroke-linecap="round"/>
  </g>
  <defs>
    <clipPath id="clip0_3551_48456">
      <rect width="13" height="13" fill="white" transform="translate(0.0488281 0.196777)"/>
    </clipPath>
  </defs>
</svg>