<svg xmlns="http://www.w3.org/2000/svg" width="33" height="33" viewBox="0 0 33 33" fill="none">
  <path d="M32.4662 30.7031C32.4662 29.5134 27.8699 28.1787 26.9754 28.9631C25.7279 30.0573 24.3464 31.0043 22.9067 31.7656C22.3423 32.0844 21.6721 32.2615 21.0371 32.2969H30.8436C31.796 32.2969 32.4662 31.5886 32.4662 30.7031Z" fill="#F7931E"/>
  <path d="M12.8496 10.337C12.7085 10.4432 12.5674 10.5495 12.4263 10.6557C10.0276 12.3558 2.76091 17.81 1.10299 15.4371C-0.519663 13.1349 1.20881 6.61816 5.37126 3.46602C5.51433 3.32237 5.70267 3.22812 5.86994 3.11355C10.2936 0.083662 13.5858 0.569693 15.213 2.86392C16.7651 5.0598 15.0366 8.53069 12.8496 10.337Z" fill="#8427E0"/>
  <path d="M30.629 15.4035C28.3714 16.9973 24.8439 15.1556 23.0801 12.8534C23.0096 12.7472 22.939 12.6764 22.8685 12.5701C21.1753 10.1617 15.7429 2.86575 18.0711 1.23656C20.3992 -0.428056 27.1368 1.37823 30.2057 5.76997C30.2762 5.87623 30.3468 5.94706 30.4173 6.05331C33.3804 10.4805 32.9219 13.7743 30.629 15.4035Z" fill="#00B5FF"/>
  <path d="M27.834 29.5952C27.6756 29.7219 27.5149 29.8461 27.3464 29.9589C22.7959 33.1818 19.4095 32.7214 17.7516 30.3839C16.1995 28.188 17.928 24.7171 20.115 22.9108C20.2561 22.8046 20.3972 22.6983 20.5383 22.5921C22.937 20.9275 30.2037 15.4378 31.8263 17.8107C33.4522 20.0683 31.8553 26.3792 27.834 29.5952Z" fill="#FFBD00"/>
  <path d="M14.8984 32.0135C12.6145 33.6464 6.12111 31.9392 2.97789 27.7276C2.85637 27.5647 2.71327 27.414 2.6227 27.2321C-0.375674 22.805 0.118176 19.4757 2.41105 17.8819C4.66865 16.2882 8.19615 18.1299 9.9599 20.432C10.0304 20.5382 10.101 20.6091 10.1715 20.7153C11.8295 23.0883 17.2618 30.3843 14.8984 32.0135Z" fill="#E3006D"/>
  <path d="M15.2169 2.86392C18.4809 7.48175 10.4134 12.2416 4.83254 13.1535C3.28235 13.4068 2.05736 13.2646 1.67131 12.3558C0.789433 10.337 2.41208 6.22857 5.37518 3.46602C5.51825 3.32237 5.7066 3.22812 5.87386 3.11355C10.2975 0.0836619 13.5897 0.569693 15.2169 2.86392Z" fill="#9327FF"/>
  <path d="M30.6295 15.401C25.9092 18.7334 21.0367 10.3547 20.3364 4.6193C20.171 3.26491 20.3573 2.22026 21.1758 1.87162C23.2923 0.950772 27.6664 2.79247 30.4531 6.05087C33.3809 10.478 32.9224 13.7718 30.6295 15.401Z" fill="#00C8FF"/>
  <path d="M27.5933 29.7806C27.5228 29.8514 27.4522 29.8868 27.3464 29.9577C22.7959 33.1806 19.4095 32.7202 17.7516 30.3827C14.4876 25.7648 22.5551 21.005 28.136 20.0931C29.6861 19.8398 30.9111 19.9819 31.2972 20.8908C32.2143 22.9096 30.5917 27.018 27.5933 29.7806Z" fill="#FFCE00"/>
  <path d="M11.8648 31.3759C9.74825 32.2968 5.37415 30.4905 2.6227 27.2321C-0.375674 22.805 0.118176 19.4757 2.41105 17.8819C7.13188 14.5492 12.027 22.9224 12.7079 28.6608C12.8667 29.9986 12.677 31.03 11.8648 31.3759Z" fill="#FB006D"/>
</svg>